<svg xmlns="http://www.w3.org/2000/svg" width="80" height="80" viewBox="0 0 80 80">
  <g id="组_143828" data-name="组 143828" transform="translate(-3257 890)">
    <rect id="矩形_5043" data-name="矩形 5043" width="80" height="80" transform="translate(3257 -890)" fill="rgba(255,255,255,0)"/>
    <g id="认证徽章" transform="translate(3093.716 -999.6)">
      <path id="路径_8547" data-name="路径 8547" d="M233.237,137.1l-1.157-1.6a9.055,9.055,0,0,1-1.322-3.554l-.174-1.983a8.077,8.077,0,0,0-4.15-6.125l-1.754-.872a8.919,8.919,0,0,1-2.791-2.516l-1.056-1.662a7.9,7.9,0,0,0-6.464-3.462l-1.947.064a8.708,8.708,0,0,1-3.618-.909l-1.7-.973a7.782,7.782,0,0,0-7.3,0l-1.7.973a8.707,8.707,0,0,1-3.618.909l-1.947-.064a7.876,7.876,0,0,0-6.464,3.462l-1.056,1.671a8.82,8.82,0,0,1-2.791,2.516l-1.754.872a8.1,8.1,0,0,0-4.15,6.125l-.174,1.983a9.162,9.162,0,0,1-1.322,3.553l-1.157,1.6a8.2,8.2,0,0,0-.881,7.383l.744,1.836a9.211,9.211,0,0,1,.45,3.774l-.294,1.965a8.169,8.169,0,0,0,2.589,6.96l1.5,1.267a9.1,9.1,0,0,1,2.121,3.122l.634,1.882a5.9,5.9,0,0,0,.432.992l-6.951,12.13h10.064l4.839,7.5,6.106-10.661a7.656,7.656,0,0,0,4.692.3l1.882-.533a8.512,8.512,0,0,1,3.728,0l1.882.533a7.63,7.63,0,0,0,4.472-.22l6.06,10.578,4.839-7.5H232.64l-6.813-11.891a7.1,7.1,0,0,0,.569-1.23l.634-1.882a8.894,8.894,0,0,1,2.121-3.122l1.5-1.267a8.159,8.159,0,0,0,2.589-6.96l-.294-1.965a9.248,9.248,0,0,1,.45-3.774l.744-1.836A8.275,8.275,0,0,0,233.237,137.1ZM203.45,170.439a25.908,25.908,0,1,1,25.426-25.9A25.669,25.669,0,0,1,203.45,170.439Zm0,0" transform="translate(0 0)" fill="none" stroke="#fff" stroke-linejoin="round" stroke-width="2"/>
      <path id="路径_8548" data-name="路径 8548" d="M286.744,207.9a23.18,23.18,0,1,0,22.744,23.176A22.963,22.963,0,0,0,286.744,207.9Zm8.163,34.553-7.823-4.233-7.906,4.068,1.533-8.888-6.244-6.4,8.769-1.258,4.049-8.025,3.884,8.108,8.742,1.442-6.372,6.271Zm0,0" transform="translate(-83.294 -86.549)" fill="none" stroke="#fff" stroke-linejoin="round" stroke-width="2"/>
    </g>
  </g>
</svg>
