<svg xmlns="http://www.w3.org/2000/svg" width="80" height="80" viewBox="0 0 80 80">
  <g id="组_143826" data-name="组 143826" transform="translate(-3844 890)">
    <rect id="矩形_5045" data-name="矩形 5045" width="80" height="80" transform="translate(3844 -890)" fill="rgba(255,255,255,0)"/>
    <g id="称" transform="translate(3760.7 -950)">
      <g id="路径_8545" data-name="路径 8545" fill="#fff">
        <path d="M 143.6849365234375 120.2700424194336 C 141.5161590576172 120.2700424194336 139.4258880615234 119.6252212524414 137.6400909423828 118.4052886962891 C 135.8953247070312 117.2133865356445 134.5503692626953 115.5547866821289 133.7506256103516 113.6087951660156 L 133.6634063720703 113.3965682983398 L 133.4456329345703 113.3243026733398 C 131.8122253417969 112.7822570800781 130.7147674560547 111.2618255615234 130.7147674560547 109.5408935546875 L 130.7147674560547 104.8507385253906 C 130.7147674560547 102.6506118774414 132.5046997070312 100.8606872558594 134.7048187255859 100.8606872558594 L 135.0409851074219 100.8606872558594 L 135.2346038818359 100.8606872558594 L 135.3777160644531 100.7302932739258 L 143.1840515136719 93.61836242675781 C 143.1959838867188 93.60938262939453 143.2057342529297 93.60159301757812 143.2129364013672 93.5958251953125 L 143.2161254882812 93.59328460693359 L 143.2280120849609 93.58536529541016 L 143.2449188232422 93.57183837890625 C 143.2769165039062 93.54625701904297 143.3027496337891 93.52558898925781 143.3295593261719 93.50709533691406 L 143.4379730224609 93.44204711914062 C 143.4496917724609 93.43501281738281 143.4652252197266 93.42568969726562 143.4730224609375 93.42156219482422 L 143.4807739257812 93.41898345947266 L 143.4943389892578 93.41356658935547 C 143.5142669677734 93.40559387207031 143.5430145263672 93.39569091796875 143.5732727050781 93.38552856445312 C 143.6014556884766 93.37935638427734 143.6253051757812 93.37284851074219 143.6444702148438 93.36762237548828 C 143.6517181396484 93.36564636230469 143.6589050292969 93.36346435546875 143.6664733886719 93.36181640625 C 143.6732025146484 93.36092376708984 143.683837890625 93.36040496826172 143.6944274902344 93.35951232910156 C 143.7249298095703 93.35697174072266 143.7628936767578 93.35381317138672 143.80712890625 93.34644317626953 C 143.8165283203125 93.34523773193359 143.8468627929688 93.34523773193359 143.8690185546875 93.34523773193359 C 143.8911895751953 93.34523773193359 143.9215545654297 93.34523773193359 143.9317932128906 93.34657287597656 L 143.9726257324219 93.35338592529297 L 144.0131072998047 93.35324859619141 C 144.0222930908203 93.35366821289062 144.0527648925781 93.35874176025391 144.0749969482422 93.36244201660156 C 144.1103515625 93.36833190917969 144.1220855712891 93.37126159667969 144.1350402832031 93.37557220458984 C 144.1544494628906 93.38205718994141 144.1723022460938 93.38859558105469 144.1901550292969 93.39508819580078 C 144.2151336669922 93.40416717529297 144.2401428222656 93.4132080078125 144.2671966552734 93.42227935791016 C 144.2777557373047 93.42698669433594 144.2877349853516 93.43267822265625 144.2983551025391 93.43822479248047 C 144.3065032958984 93.44248199462891 144.3147583007812 93.44678497314453 144.3231964111328 93.45111083984375 L 144.4164733886719 93.507080078125 C 144.4431762695312 93.52549743652344 144.4689178466797 93.54607391357422 144.5006866455078 93.57147216796875 L 144.5175933837891 93.58500671386719 L 144.5298004150391 93.59317779541016 L 144.5331420898438 93.59584808349609 C 144.5403442382812 93.60160827636719 144.5500946044922 93.60940551757812 144.5620269775391 93.61839294433594 L 152.3765411376953 100.73046875 L 152.5161437988281 100.8575286865234 L 152.7048950195312 100.8606185913086 C 153.7547454833984 100.8778228759766 154.7421569824219 101.3006057739258 155.4852294921875 102.0510864257812 C 156.2293395996094 102.8026275634766 156.6448364257812 103.7986221313477 156.6551666259766 104.8556365966797 L 156.6551361083984 109.5408935546875 C 156.6551361083984 111.2618179321289 155.5576782226562 112.7822570800781 153.9242553710938 113.3243026733398 L 153.7069549560547 113.3964157104492 L 153.6195831298828 113.608024597168 C 152.8158721923828 115.5544052124023 151.46875 117.2132720947266 149.7238159179688 118.4052886962891 C 147.9380035400391 119.6252212524414 145.8497924804688 120.2700424194336 143.6849365234375 120.2700424194336 Z M 136.7598571777344 111.8341827392578 L 137.0833740234375 112.5420227050781 C 138.2600250244141 115.1164855957031 140.8450164794922 116.7799835205078 143.6689453125 116.7799835205078 C 146.4857940673828 116.7799835205078 149.067626953125 115.1133346557617 150.2464752197266 112.5340042114258 L 150.5699920654297 111.8261642456055 L 149.7917327880859 111.8261642456055 L 148.9033355712891 111.8261642456055 C 148.3537445068359 111.8261642456055 147.9066314697266 111.3790664672852 147.9066314697266 110.8294982910156 C 147.9066314697266 110.279914855957 148.3537445068359 109.8327941894531 148.9033355712891 109.8327941894531 L 152.4409637451172 109.8327941894531 C 152.4488067626953 109.8332977294922 152.4800872802734 109.8382339477539 152.5007934570312 109.8415069580078 C 152.5274810791016 109.8457260131836 152.5538177490234 109.8497848510742 152.5791473388672 109.8529434204102 L 153.1410522460938 109.9230575561523 L 153.1410522460938 109.3567962646484 L 153.1410522460938 104.8507385253906 L 153.1410522460938 104.3507385253906 L 152.6410522460938 104.3507385253906 L 134.6968231201172 104.3507385253906 L 134.1968231201172 104.3507385253906 L 134.1968231201172 104.8507385253906 L 134.1968231201172 109.3567962646484 L 134.1968231201172 109.9231567382812 L 134.7588043212891 109.8529357910156 C 134.8087921142578 109.8466949462891 134.8559875488281 109.8407974243164 134.8889007568359 109.8407974243164 L 143.8690185546875 109.8407974243164 C 144.4185943603516 109.8407974243164 144.86572265625 110.2879028320312 144.86572265625 110.8374786376953 C 144.86572265625 111.3870620727539 144.4185943603516 111.8341827392578 143.8690185546875 111.8341827392578 L 137.5381317138672 111.8341827392578 L 136.7598571777344 111.8341827392578 Z M 143.8687133789062 95.68289184570312 L 143.5323791503906 95.98914337158203 L 139.1463775634766 99.98296356201172 L 138.1912841796875 100.852668762207 L 139.4830169677734 100.852668762207 L 148.2630462646484 100.852668762207 L 149.5565338134766 100.852668762207 L 148.5993499755859 99.982666015625 L 144.205322265625 95.98884582519531 L 143.8687133789062 95.68289184570312 Z M 102.7701721191406 120.2700424194336 C 100.6013870239258 120.2700424194336 98.51111602783203 119.6252212524414 96.72531127929688 118.4052886962891 C 94.98053741455078 117.2133865356445 93.63559722900391 115.5547866821289 92.83586883544922 113.6087951660156 L 92.74864959716797 113.3965682983398 L 92.53087615966797 113.3243026733398 C 90.8974609375 112.7822647094727 89.80000305175781 111.2618255615234 89.80000305175781 109.5408935546875 L 89.80000305175781 104.8507461547852 C 89.80000305175781 102.6506118774414 91.58992767333984 100.8606872558594 93.79004669189453 100.8606872558594 L 93.92613220214844 100.8606872558594 L 94.11974334716797 100.8606872558594 L 94.26286315917969 100.7302932739258 L 102.0637664794922 93.62331390380859 C 102.0874786376953 93.60685729980469 102.1141204833984 93.58714294433594 102.1414108276367 93.56301116943359 C 102.1524810791016 93.55460357666016 102.1641693115234 93.54623413085938 102.1757888793945 93.53778839111328 C 102.1935958862305 93.52483367919922 102.2113647460938 93.51181793212891 102.2285003662109 93.49881744384766 L 102.3080139160156 93.45111083984375 C 102.3163986206055 93.44680786132812 102.3246078491211 93.44252777099609 102.3327178955078 93.43829345703125 C 102.3434143066406 93.43270874023438 102.3534622192383 93.42697906494141 102.3641128540039 93.42224884033203 C 102.3909072875977 93.41326141357422 102.415901184082 93.40422821044922 102.4408798217773 93.3951416015625 C 102.4499130249023 93.39186096191406 102.4589462280273 93.38856506347656 102.4681854248047 93.38526153564453 C 102.4918060302734 93.38018798828125 102.5129089355469 93.37491607666016 102.5312728881836 93.37032318115234 C 102.5424194335938 93.36753845214844 102.5534896850586 93.36439514160156 102.5646514892578 93.36237335205078 C 102.5864486694336 93.35874176025391 102.6169204711914 93.35366821289062 102.6276092529297 93.35322570800781 L 102.6690292358398 93.35322570800781 L 102.708381652832 93.346435546875 C 102.7176818847656 93.34523773193359 102.7480163574219 93.34523773193359 102.7701721191406 93.34523773193359 C 102.7923278808594 93.34523773193359 102.8226776123047 93.34523773193359 102.8329086303711 93.34657287597656 L 102.8737487792969 93.35338592529297 L 102.9142379760742 93.35324859619141 C 102.9225006103516 93.35362243652344 102.947998046875 93.35777282714844 102.9692230224609 93.36129760742188 L 102.9833679199219 93.36406707763672 C 103.0017929077148 93.36763763427734 103.0270080566406 93.37252807617188 103.0362319946289 93.37559509277344 C 103.0769577026367 93.38917541503906 103.1185302734375 93.40303802490234 103.1448059082031 93.41354370117188 L 103.1584167480469 93.41898345947266 L 103.1723175048828 93.42361450195312 C 103.1762008666992 93.42491149902344 103.1903915405273 93.43073272705078 103.2091903686523 93.44202423095703 L 103.3176651000977 93.50711059570312 C 103.3443603515625 93.52552032470703 103.3700790405273 93.54608154296875 103.4018402099609 93.57147216796875 L 103.4186630249023 93.58493804931641 L 103.4308700561523 93.59312438964844 L 103.434211730957 93.59578704833984 C 103.4414215087891 93.60155487060547 103.451171875 93.60935211181641 103.4631118774414 93.61833953857422 L 111.2695007324219 100.7302932739258 L 111.4126205444336 100.8606872558594 L 111.6062316894531 100.8606872558594 L 111.7422866821289 100.8606872558594 C 113.9424209594727 100.8606872558594 115.7323532104492 102.6506118774414 115.7323532104492 104.8507461547852 L 115.7323532104492 109.5408935546875 C 115.7323532104492 111.2618255615234 114.6348876953125 112.7822647094727 113.0014572143555 113.3243026733398 L 112.7838897705078 113.3965072631836 L 112.6966018676758 113.6084747314453 C 111.8960189819336 115.552734375 110.5522918701172 117.2104949951172 108.8106689453125 118.4025344848633 C 107.0256729125977 119.6242752075195 104.936897277832 120.2700424194336 102.7701721191406 120.2700424194336 Z M 95.86109161376953 111.8341827392578 L 96.18460845947266 112.5420227050781 C 97.36125183105469 115.1164855957031 99.94624328613281 116.7799835205078 102.7701721191406 116.7799835205078 C 104.1862258911133 116.7799835205078 105.5572204589844 116.3698883056641 106.7349395751953 115.5940170288086 C 107.879020690918 114.8403015136719 108.7852783203125 113.7821731567383 109.3557357788086 112.5340042114258 L 109.6792602539062 111.8261642456055 L 108.900993347168 111.8261642456055 L 108.0045700073242 111.8261642456055 C 107.4550018310547 111.8261642456055 107.0078887939453 111.3790664672852 107.0078887939453 110.8294982910156 C 107.0078887939453 110.279914855957 107.4550018310547 109.8327941894531 108.0045700073242 109.8327941894531 L 111.5421981811523 109.8327941894531 C 111.550048828125 109.8332977294922 111.5813522338867 109.8382415771484 111.6020584106445 109.8415145874023 C 111.6287384033203 109.8457260131836 111.6550598144531 109.8497848510742 111.6803817749023 109.8529434204102 L 112.2422866821289 109.9230651855469 L 112.2422866821289 109.3567962646484 L 112.2422866821289 104.8507385253906 L 112.2422866821289 104.3507385253906 L 111.7422866821289 104.3507385253906 L 93.79805755615234 104.3507385253906 L 93.29805755615234 104.3507385253906 L 93.29805755615234 104.8507385253906 L 93.29805755615234 109.3567962646484 L 93.29805755615234 109.9231567382812 L 93.86004638671875 109.8529357910156 C 93.91002655029297 109.8466949462891 93.95722961425781 109.8407974243164 93.99015045166016 109.8407974243164 L 102.9702606201172 109.8407974243164 C 103.5198364257812 109.8407974243164 103.9669494628906 110.2879028320312 103.9669494628906 110.8374786376953 C 103.9669494628906 111.3870620727539 103.5198364257812 111.8341827392578 102.9702606201172 111.8341827392578 L 96.63935852050781 111.8341827392578 L 95.86109161376953 111.8341827392578 Z M 102.7704772949219 95.68289184570312 L 102.4338684082031 95.98884582519531 L 98.03985595703125 99.982666015625 L 97.08267974853516 100.852668762207 L 98.37615966796875 100.852668762207 L 107.1561660766602 100.852668762207 L 108.4478988647461 100.852668762207 L 107.4928131103516 99.98296356201172 L 103.1068115234375 95.98914337158203 L 102.7704772949219 95.68289184570312 Z M 143.8770294189453 90.72048187255859 C 142.9126129150391 90.72048187255859 142.1280059814453 89.93587493896484 142.1280059814453 88.97145843505859 L 142.1280059814453 87.21865844726562 L 142.1280059814453 87.06011199951172 L 142.0366668701172 86.9305419921875 C 141.4793853759766 86.14013671875 139.3919830322266 85.2132568359375 136.5890502929688 84.51160430908203 C 134.032958984375 83.87174224853516 129.6566314697266 83.1090087890625 123.3235931396484 83.1090087890625 C 116.9905624389648 83.1090087890625 112.6142425537109 83.87174224853516 110.0581512451172 84.51160430908203 C 107.2552108764648 85.2132568359375 105.1678161621094 86.14014434814453 104.6105499267578 86.9305419921875 L 104.5192031860352 87.06011199951172 L 104.5192031860352 87.21865844726562 L 104.5192031860352 88.97145843505859 C 104.5192031860352 89.93587493896484 103.7345886230469 90.72048187255859 102.7701721191406 90.72048187255859 C 102.30224609375 90.72048187255859 101.8628692626953 90.53762817382812 101.532958984375 90.20558166503906 C 101.2050704956055 89.87556457519531 101.0261383056641 89.43842315673828 101.0291290283203 88.97467803955078 L 101.0291366577148 87.08258819580078 C 101.0291366577148 85.8748779296875 101.6200332641602 84.82110595703125 102.835578918457 83.86105346679688 C 103.9584732055664 82.97419738769531 105.5959014892578 82.20079803466797 107.7024002075195 81.56234741210938 C 112.3755569458008 80.14595794677734 118.0367660522461 79.76668548583984 120.9954223632812 79.66666412353516 L 121.4785308837891 79.65033721923828 L 121.4785308837891 79.16695404052734 L 121.4785308837891 77.05399322509766 L 121.4785308837891 76.70156860351562 L 121.1466064453125 76.58309173583984 C 118.6690673828125 75.69879150390625 117.0044708251953 73.34383392333984 117.0044708251953 70.72308349609375 C 117.0044708251953 67.29166412353516 119.7961273193359 64.50000762939453 123.2275466918945 64.50000762939453 C 126.6589813232422 64.50000762939453 129.4506530761719 67.29166412353516 129.4506530761719 70.72308349609375 C 129.4506530761719 73.34382629394531 127.7860488891602 75.69878387451172 125.3085021972656 76.58309173583984 L 124.9765777587891 76.70156860351562 L 124.9765777587891 77.05399322509766 L 124.9765777587891 79.15895843505859 L 124.9765777587891 79.64415740966797 L 125.4615631103516 79.65872192382812 C 128.4301605224609 79.7479248046875 134.1175842285156 80.10897827148438 138.8545989990234 81.52487182617188 C 140.9898529052734 82.16310882568359 142.6504516601562 82.9385986328125 143.790283203125 83.82980346679688 C 145.0255737304688 84.795654296875 145.6260681152344 85.85703277587891 145.6260681152344 87.0745849609375 L 145.6260681152344 88.97145843505859 C 145.6260681152344 89.93587493896484 144.8414459228516 90.72048187255859 143.8770294189453 90.72048187255859 Z M 123.2195587158203 67.99006652832031 C 121.7125625610352 67.99006652832031 120.4865264892578 69.21609497070312 120.4865264892578 70.72308349609375 C 120.4865264892578 72.23007202148438 121.7125625610352 73.45610809326172 123.2195587158203 73.45610809326172 C 124.7265472412109 73.45610809326172 125.9525833129883 72.23007202148438 125.9525833129883 70.72308349609375 C 125.9525833129883 69.21609497070312 124.7265472412109 67.99006652832031 123.2195587158203 67.99006652832031 Z" stroke="none"/>
        <path d="M 123.2275543212891 64.99999237060547 C 120.0718307495117 64.99999237060547 117.5044708251953 67.56736755371094 117.5044708251953 70.72308349609375 C 117.5044708251953 73.13304138183594 119.0356826782227 75.29875183105469 121.3146820068359 76.1121826171875 L 121.9785308837891 76.34913635253906 L 121.9785308837891 77.05399322509766 L 121.9785308837891 79.16695404052734 L 121.9785308837891 80.13372802734375 L 121.0123138427734 80.1663818359375 C 118.0781097412109 80.26557159423828 112.466064453125 80.64098358154297 107.8474273681641 82.04084777832031 C 105.8010406494141 82.66108703613281 104.2190856933594 83.40550231933594 103.1454925537109 84.25343322753906 C 102.0578460693359 85.11245727539062 101.5291442871094 86.03787231445312 101.5291442871094 87.08258819580078 L 101.5291442871094 88.97145843505859 L 101.5291442871094 88.97467803955078 L 101.5291290283203 88.97789764404297 C 101.5270080566406 89.3074951171875 101.6543273925781 89.61833190917969 101.8876647949219 89.85317230224609 C 102.1230010986328 90.09003448486328 102.4364166259766 90.22048187255859 102.7701721191406 90.22048187255859 C 103.4588775634766 90.22048187255859 104.0191955566406 89.66017150878906 104.0191955566406 88.97145843505859 L 104.0191955566406 87.21865844726562 L 104.0191955566406 86.90157318115234 L 104.201904296875 86.64242553710938 C 105.1139221191406 85.34885406494141 108.5162658691406 84.38215637207031 109.9367370605469 84.02657318115234 C 112.5200958251953 83.3798828125 116.9396209716797 82.6090087890625 123.3235931396484 82.6090087890625 C 129.7075805664062 82.6090087890625 134.1271057128906 83.3798828125 136.7104644775391 84.02657318115234 C 138.1309509277344 84.38215637207031 141.5332794189453 85.34886169433594 142.4452819824219 86.64243316650391 L 142.6279907226562 86.90157318115234 L 142.6279907226562 87.21865844726562 L 142.6279907226562 88.97145843505859 C 142.6279907226562 89.66017150878906 143.1883087158203 90.22048187255859 143.8770294189453 90.22048187255859 C 144.5657501220703 90.22048187255859 145.1260681152344 89.66017150878906 145.1260681152344 88.97145843505859 L 145.1260681152344 87.0745849609375 C 145.1260681152344 86.02105712890625 144.58837890625 85.08851623535156 143.4822998046875 84.22369384765625 C 142.3918151855469 83.37105560302734 140.7866516113281 82.62422180175781 138.7113952636719 82.00392150878906 C 134.0289611816406 80.60434722900391 128.3907012939453 80.24696350097656 125.4465484619141 80.15850830078125 L 124.4765853881836 80.12936401367188 L 124.4765853881836 79.15895843505859 L 124.4765853881836 77.05399322509766 L 124.4765853881836 76.34913635253906 L 125.1404190063477 76.1121826171875 C 127.4194412231445 75.29874420166016 128.9506530761719 73.13302612304688 128.9506530761719 70.72308349609375 C 128.9506530761719 67.56736755371094 126.3832855224609 64.99999237060547 123.2275543212891 64.99999237060547 M 123.2195587158203 73.95610809326172 C 121.4368591308594 73.95610809326172 119.9865188598633 72.50577545166016 119.9865188598633 70.72308349609375 C 119.9865188598633 68.94039154052734 121.4368591308594 67.49006652832031 123.2195587158203 67.49006652832031 C 125.0022506713867 67.49006652832031 126.4525756835938 68.94039154052734 126.4525756835938 70.72308349609375 C 126.4525756835938 72.50577545166016 125.0022506713867 73.95610809326172 123.2195587158203 73.95610809326172 M 143.8534545898438 93.84519195556641 C 143.8534240722656 93.84519195556641 143.8533630371094 93.84519195556641 143.8533020019531 93.84519195556641 C 143.8135070800781 93.850830078125 143.7791290283203 93.85411071777344 143.7522735595703 93.85641479492188 C 143.7398681640625 93.85971069335938 143.7257080078125 93.86335754394531 143.7099761962891 93.86712646484375 C 143.7022094726562 93.86978912353516 143.6950531005859 93.87227630615234 143.6893005371094 93.87435150146484 L 143.6039428710938 93.92555999755859 C 143.5918426513672 93.93461608886719 143.5755004882812 93.94768524169922 143.5573425292969 93.96221160888672 L 143.5234069824219 93.98937225341797 L 143.5108337402344 93.99774932861328 C 143.5090484619141 93.99915313720703 143.5071868896484 94.00061798095703 143.5052337646484 94.00213623046875 L 135.7144470214844 101.0999069213867 L 135.4281921386719 101.3606872558594 L 135.0409851074219 101.3606872558594 L 134.7048187255859 101.3606872558594 C 132.7803955078125 101.3606872558594 131.2147827148438 102.9263153076172 131.2147827148438 104.8507385253906 L 131.2147827148438 109.5408935546875 C 131.2147827148438 111.0459671020508 132.174560546875 112.3756942749023 133.6031188964844 112.8497314453125 L 134.0386657714844 112.9942626953125 L 134.2131042480469 113.4187240600586 C 134.9756317138672 115.2741851806641 136.2581939697266 116.8557434082031 137.922119140625 117.9924240112305 C 139.6244812011719 119.1553573608398 141.6172180175781 119.7700424194336 143.6849365234375 119.7700424194336 C 145.7487335205078 119.7700424194336 147.7394104003906 119.1553573608398 149.4417724609375 117.9924240112305 C 151.1061248779297 116.85546875 152.3909606933594 115.2733688354492 153.1574249267578 113.4171829223633 L 153.3321838378906 112.9939575195312 L 153.7667694091797 112.8497314453125 C 155.1953125 112.3756866455078 156.1551208496094 111.0459671020508 156.1551208496094 109.5408935546875 L 156.1551208496094 104.8557662963867 C 156.1448974609375 103.9312973022461 155.7809143066406 103.0603561401367 155.1299133300781 102.4028854370117 C 154.4793090820312 101.7457733154297 153.6151733398438 101.375602722168 152.6966857910156 101.3605575561523 L 152.3191986083984 101.354362487793 L 152.0399780273438 101.1002426147461 L 144.2407684326172 94.00208282470703 C 144.2386779785156 94.00045776367188 144.2366790771484 93.99888610839844 144.2347412109375 93.99735260009766 L 144.2220153808594 93.98884582519531 L 144.188232421875 93.96182250976562 C 144.1702575683594 93.94746398925781 144.1540832519531 93.93453216552734 144.1421203613281 93.92556762695312 L 144.0794372558594 93.88796234130859 C 144.0765533447266 93.88645935058594 144.0736846923828 93.88496398925781 144.0708312988281 93.88347625732422 C 144.0533142089844 93.8773193359375 144.0362854003906 93.87117004394531 144.0192718505859 93.86498260498047 C 144.010986328125 93.86197662353516 144.0027313232422 93.85892486572266 143.9942321777344 93.85589599609375 L 143.9928283691406 93.85565185546875 C 143.9880981445312 93.85486602783203 143.9833679199219 93.85404205322266 143.9786376953125 93.85324859619141 L 143.9302978515625 93.85324859619141 L 143.8820190429688 93.84519958496094 C 143.877685546875 93.84520721435547 143.8733520507812 93.84523773193359 143.8690185546875 93.84523773193359 C 143.8638305664062 93.84523773193359 143.858642578125 93.84519195556641 143.8534545898438 93.84519195556641 M 150.8500061035156 101.352668762207 L 148.2630310058594 101.352668762207 L 139.4830017089844 101.352668762207 L 136.8995361328125 101.352668762207 L 138.8097229003906 99.61327362060547 L 143.1957397460938 95.61945343017578 L 143.868408203125 95.00694274902344 L 144.5416259765625 95.61884307861328 L 148.9356384277344 99.61266326904297 L 150.8500061035156 101.352668762207 M 153.6410522460938 110.4893112182617 L 152.5172424316406 110.3491058349609 C 152.4867248535156 110.3452987670898 152.4549713134766 110.340461730957 152.4228210449219 110.3353881835938 C 152.4174499511719 110.3345413208008 152.4120635986328 110.3336486816406 152.4066772460938 110.3327941894531 L 148.9033355712891 110.3327941894531 C 148.6294555664062 110.3327941894531 148.4066314697266 110.5556182861328 148.4066314697266 110.8294982910156 C 148.4066314697266 111.1033554077148 148.6294555664062 111.3261642456055 148.9033355712891 111.3261642456055 L 149.7917327880859 111.3261642456055 L 151.3482666015625 111.3261642456055 L 150.7012329101562 112.7418441772461 C 149.4412536621094 115.498664855957 146.6809234619141 117.2799835205078 143.6689453125 117.2799835205078 C 140.6498718261719 117.2799835205078 137.8863830566406 115.5018081665039 136.6286315917969 112.7498779296875 L 135.9815979003906 111.3341827392578 L 137.5381317138672 111.3341827392578 L 143.8690185546875 111.3341827392578 C 144.1428985595703 111.3341827392578 144.36572265625 111.1113662719727 144.36572265625 110.8374786376953 C 144.36572265625 110.563606262207 144.1428985595703 110.3407974243164 143.8690185546875 110.3407974243164 L 134.8935241699219 110.3407974243164 C 134.8794860839844 110.3417434692383 134.8457794189453 110.3459548950195 134.8208312988281 110.3490753173828 L 133.6968231201172 110.4895172119141 L 133.6968231201172 109.3567962646484 L 133.6968231201172 104.8507385253906 L 133.6968231201172 103.8507385253906 L 134.6968231201172 103.8507385253906 L 152.6410522460938 103.8507385253906 L 153.6410522460938 103.8507385253906 L 153.6410522460938 104.8507385253906 L 153.6410522460938 109.3567962646484 L 153.6410522460938 110.4893112182617 M 102.7571716308594 93.84519958496094 L 102.7089080810547 93.85324859619141 L 102.6612396240234 93.85324859619141 L 102.6524963378906 93.85540771484375 C 102.6401519775391 93.85848999023438 102.6255493164062 93.86213684082031 102.6090087890625 93.86603546142578 C 102.5929260253906 93.87187957763672 102.5768280029297 93.877685546875 102.5604095458984 93.88346862792969 C 102.5574951171875 93.88498687744141 102.5545654296875 93.88650512695312 102.5516357421875 93.88803100585938 L 102.5076599121094 93.91440582275391 C 102.4952239990234 93.92364501953125 102.4826202392578 93.93287658691406 102.4699859619141 93.94206237792969 C 102.4646148681641 93.94597625732422 102.4591979980469 93.94985198974609 102.4541168212891 93.95355224609375 C 102.4272003173828 93.97636413574219 102.4015350341797 93.99614715576172 102.3784637451172 94.01299285888672 L 94.59957885742188 101.0999069213867 L 94.31333923339844 101.3606872558594 L 93.92611694335938 101.3606872558594 L 93.7900390625 101.3606872558594 C 91.86561584472656 101.3606872558594 90.29998779296875 102.9263153076172 90.29998779296875 104.8507461547852 L 90.29998779296875 109.5408935546875 C 90.29998779296875 111.0459671020508 91.25979614257812 112.3756866455078 92.68833923339844 112.8497314453125 L 93.12388610839844 112.9942626953125 L 93.29832458496094 113.4187316894531 C 94.06085205078125 115.2741851806641 95.34339904785156 116.8557434082031 97.00733947753906 117.9924240112305 C 98.70968627929688 119.1553573608398 100.7024536132812 119.7700424194336 102.7701721191406 119.7700424194336 C 104.8356781005859 119.7700424194336 106.8267822265625 119.1544952392578 108.5282592773438 117.9899215698242 C 110.1893157958984 116.8530120849609 111.4708404541016 115.272102355957 112.2342529296875 113.418098449707 L 112.4088287353516 112.9941329956055 L 112.8439788818359 112.8497314453125 C 114.2725372314453 112.3756866455078 115.2323455810547 111.0459671020508 115.2323455810547 109.5408935546875 L 115.2323455810547 104.8507461547852 C 115.2323455810547 102.9263153076172 113.6667175292969 101.3606872558594 111.7422790527344 101.3606872558594 L 111.6062316894531 101.3606872558594 L 111.2190093994141 101.3606872558594 L 110.9327697753906 101.0999069213867 L 103.1417846679688 94.00199127197266 C 103.1397857666016 94.00042724609375 103.1378479003906 93.99890899658203 103.1359710693359 93.9974365234375 L 103.1233215332031 93.98897552490234 L 103.0896301269531 93.9620361328125 C 103.0715637207031 93.94757080078125 103.0552825927734 93.93456268310547 103.0432281494141 93.92554473876953 L 102.9723052978516 93.88299560546875 L 102.9593963623047 93.87789154052734 C 102.9488372802734 93.87372589111328 102.9230804443359 93.86498260498047 102.8995208740234 93.85708618164062 C 102.8956604003906 93.85633850097656 102.8918762207031 93.85563659667969 102.8882141113281 93.85492706298828 L 102.879638671875 93.85324859619141 L 102.8314361572266 93.85324859619141 L 102.7831726074219 93.84519958496094 C 102.7788391113281 93.84520721435547 102.7745056152344 93.84523773193359 102.7701721191406 93.84523773193359 C 102.7658386230469 93.84523773193359 102.7615051269531 93.84520721435547 102.7571716308594 93.84519958496094 M 109.7396392822266 101.352668762207 L 107.1561737060547 101.352668762207 L 98.37615966796875 101.352668762207 L 95.78919982910156 101.352668762207 L 97.70355224609375 99.61266326904297 L 102.0975646972656 95.61884307861328 L 102.7707824707031 95.00693511962891 L 103.4434509277344 95.61945343017578 L 107.8294525146484 99.61327362060547 L 109.7396392822266 101.352668762207 M 112.7422790527344 110.4893341064453 L 111.6184692382812 110.3490982055664 C 111.5879364013672 110.3452987670898 111.5561981201172 110.340461730957 111.5240325927734 110.3353881835938 C 111.5186767578125 110.3345413208008 111.5132904052734 110.3336486816406 111.5079040527344 110.3327941894531 L 108.0045776367188 110.3327941894531 C 107.7306976318359 110.3327941894531 107.5078887939453 110.5556182861328 107.5078887939453 110.8294982910156 C 107.5078887939453 111.1033554077148 107.7306976318359 111.3261642456055 108.0045776367188 111.3261642456055 L 108.9009857177734 111.3261642456055 L 110.4575347900391 111.3261642456055 L 109.8104858398438 112.7418518066406 C 109.2009582519531 114.0754928588867 108.2325592041016 115.2061386108398 107.0099945068359 116.0115432739258 C 105.7503967285156 116.8413619995117 104.2842864990234 117.2799835205078 102.7701721191406 117.2799835205078 C 99.7510986328125 117.2799835205078 96.98760986328125 115.5018081665039 95.7298583984375 112.7498779296875 L 95.08282470703125 111.3341827392578 L 96.63935852050781 111.3341827392578 L 102.9702606201172 111.3341827392578 C 103.244140625 111.3341827392578 103.4669494628906 111.1113662719727 103.4669494628906 110.8374786376953 C 103.4669494628906 110.563606262207 103.244140625 110.3407974243164 102.9702606201172 110.3407974243164 L 93.9947509765625 110.3407974243164 C 93.98072814941406 110.3417434692383 93.947021484375 110.3459548950195 93.92207336425781 110.3490753173828 L 92.79806518554688 110.4895172119141 L 92.79806518554688 109.3567962646484 L 92.79806518554688 104.8507385253906 L 92.79806518554688 103.8507385253906 L 93.79806518554688 103.8507385253906 L 111.7422790527344 103.8507385253906 L 112.7422790527344 103.8507385253906 L 112.7422790527344 104.8507385253906 L 112.7422790527344 109.3567962646484 L 112.7422790527344 110.4893341064453 M 123.2275543212891 63.99999237060547 C 126.9332427978516 63.99999237060547 129.9506530761719 67.01738739013672 129.9506530761719 70.72308349609375 C 129.9506530761719 73.64442443847656 128.0777740478516 76.12555694580078 125.4765853881836 77.05399322509766 L 125.4765853881836 79.15895843505859 C 134.00048828125 79.41506195068359 146.1260681152344 81.29592132568359 146.1260681152344 87.0745849609375 L 146.1260681152344 88.97145843505859 C 146.1260681152344 90.21202850341797 145.1176147460938 91.22048187255859 143.8770294189453 91.22048187255859 C 142.6364593505859 91.22048187255859 141.6279907226562 90.21202850341797 141.6279907226562 88.97145843505859 L 141.6279907226562 87.21865844726562 C 140.8436431884766 86.10614776611328 134.7528381347656 83.6090087890625 123.3235931396484 83.6090087890625 C 111.8943634033203 83.6090087890625 105.8035583496094 86.10614776611328 105.0191955566406 87.21865844726562 L 105.0191955566406 88.97145843505859 C 105.0191955566406 90.21202850341797 104.0107421875 91.22048187255859 102.7701721191406 91.22048187255859 C 101.5296020507812 91.22048187255859 100.5211486816406 90.21202850341797 100.5291442871094 88.97145843505859 L 100.5291442871094 87.08258819580078 C 100.5291442871094 81.35195159912109 112.4546203613281 79.45509338378906 120.9785308837891 79.16695404052734 L 120.9785308837891 77.05399322509766 C 118.3773345947266 76.12556457519531 116.5044708251953 73.64442443847656 116.5044708251953 70.72308349609375 C 116.5044708251953 67.01738739013672 119.521858215332 63.99999237060547 123.2275543212891 63.99999237060547 Z M 123.2195587158203 72.95610809326172 C 124.4521255493164 72.95610809326172 125.4525756835938 71.95564270019531 125.4525756835938 70.72308349609375 C 125.4525756835938 69.49052429199219 124.4521255493164 68.49006652832031 123.2195587158203 68.49006652832031 C 121.9869842529297 68.49006652832031 120.9865188598633 69.49052429199219 120.9865188598633 70.72308349609375 C 120.9865188598633 71.95564270019531 121.9869842529297 72.95610809326172 123.2195587158203 72.95610809326172 Z M 102.7701721191406 92.84523773193359 C 102.8181915283203 92.84523773193359 102.8662109375 92.84523773193359 102.9142456054688 92.85324859619141 C 102.9622497558594 92.85324859619141 103.0102844238281 92.86124420166016 103.0583038330078 92.86924743652344 C 103.0983276367188 92.87725830078125 103.1463470458984 92.88525390625 103.1943664550781 92.90126800537109 C 103.2424011230469 92.91727447509766 103.2904052734375 92.93327331542969 103.3304290771484 92.94927215576172 C 103.3784484863281 92.96528625488281 103.4264831542969 92.98929595947266 103.4664916992188 93.01331329345703 L 103.5865478515625 93.08534240722656 C 103.6345825195312 93.11736297607422 103.6745910644531 93.14938354492188 103.714599609375 93.18138122558594 C 103.7386169433594 93.19740295410156 103.7546081542969 93.21340179443359 103.7786254882812 93.22940826416016 L 111.6062316894531 100.3606872558594 L 111.7422790527344 100.3606872558594 C 114.2234191894531 100.3606872558594 116.2323455810547 102.3696060180664 116.2323455810547 104.8507461547852 L 116.2323455810547 109.5408935546875 C 116.2323455810547 111.5178070068359 114.9437561035156 113.2065734863281 113.158935546875 113.7988433837891 C 111.4781646728516 117.8807144165039 107.4603271484375 120.7700424194336 102.7701721191406 120.7700424194336 C 98.08001708984375 120.7700424194336 94.05416870117188 117.8887252807617 92.37339782714844 113.7988433837891 C 90.58857727050781 113.2065734863281 89.29998779296875 111.5258026123047 89.29998779296875 109.5408935546875 L 89.29998779296875 104.8507461547852 C 89.29998779296875 102.3696060180664 91.30891418457031 100.3606872558594 93.7900390625 100.3606872558594 L 93.92611694335938 100.3606872558594 L 101.7537078857422 93.22940826416016 C 101.7777099609375 93.21340179443359 101.8017272949219 93.19740295410156 101.8177490234375 93.18138122558594 C 101.8577575683594 93.14938354492188 101.90576171875 93.11736297607422 101.9457855224609 93.08534240722656 L 102.0658569335938 93.01331329345703 C 102.1138763427734 92.98929595947266 102.1539001464844 92.96530151367188 102.201904296875 92.94927215576172 C 102.2499237060547 92.93327331542969 102.2899475097656 92.91727447509766 102.3379669189453 92.90126800537109 C 102.385986328125 92.89325714111328 102.4340209960938 92.87725830078125 102.4820404052734 92.86924743652344 C 102.5300598144531 92.86124420166016 102.5780944824219 92.85324859619141 102.6260986328125 92.85324859619141 C 102.6741333007812 92.84523773193359 102.7221527099609 92.84523773193359 102.7701721191406 92.84523773193359 Z M 107.1561737060547 100.352668762207 L 102.7701721191406 96.35884857177734 L 98.37615966796875 100.352668762207 L 107.1561737060547 100.352668762207 Z M 111.7422790527344 109.3567962646484 L 111.7422790527344 104.8507385253906 L 93.79806518554688 104.8507385253906 L 93.79806518554688 109.3567962646484 C 93.86209106445312 109.3487930297852 93.92611694335938 109.3407974243164 93.99014282226562 109.3407974243164 L 102.9702606201172 109.3407974243164 C 103.7946472167969 109.3407974243164 104.4669494628906 110.0131072998047 104.4669494628906 110.8374786376953 C 104.4669494628906 111.6618576049805 103.8026428222656 112.3341827392578 102.9702606201172 112.3341827392578 L 96.63935852050781 112.3341827392578 C 97.70384216308594 114.6632385253906 100.0489196777344 116.2799835205078 102.7701721191406 116.2799835205078 C 105.4994201660156 116.2799835205078 107.8364868164062 114.6552352905273 108.9009857177734 112.3261642456055 L 108.0045776367188 112.3261642456055 C 107.1801910400391 112.3261642456055 106.5078887939453 111.6538619995117 106.5078887939453 110.8294982910156 C 106.5078887939453 110.0051116943359 107.1801910400391 109.3327941894531 108.0045776367188 109.3327941894531 L 111.5422058105469 109.3327941894531 C 111.6062316894531 109.3327941894531 111.6782531738281 109.3488082885742 111.7422790527344 109.3567962646484 Z M 143.8690185546875 92.84523773193359 C 143.9170532226562 92.84523773193359 143.9650726318359 92.84523773193359 144.0130920410156 92.85324859619141 C 144.0611114501953 92.85324859619141 144.109130859375 92.86124420166016 144.1571655273438 92.86924743652344 C 144.2051544189453 92.87724304199219 144.2451934814453 92.88524627685547 144.293212890625 92.90125274658203 C 144.3412322998047 92.91727447509766 144.3812561035156 92.93327331542969 144.4292907714844 92.94927215576172 C 144.4773101806641 92.96528625488281 144.5173187255859 92.98929595947266 144.5653381347656 93.0133056640625 L 144.6853942871094 93.08534240722656 C 144.7334289550781 93.11736297607422 144.7734375 93.14938354492188 144.8134613037109 93.18138122558594 C 144.8374786376953 93.19739532470703 144.8534851074219 93.21340179443359 144.8774719238281 93.22940826416016 L 152.7130737304688 100.3606872558594 L 152.7130889892578 100.3606872558594 C 155.1542205810547 100.4006958007812 157.1311187744141 102.3936157226562 157.1551208496094 104.8507461547852 L 157.1551208496094 109.5408935546875 C 157.1551208496094 111.5178070068359 155.8665313720703 113.2065734863281 154.0817260742188 113.7988433837891 C 152.3929443359375 117.8887252807617 148.3670959472656 120.7700424194336 143.6849365234375 120.7700424194336 C 138.9947814941406 120.7700424194336 134.9689636230469 117.8887252807617 133.2881622314453 113.7988433837891 C 131.5033569335938 113.2065734863281 130.2147827148438 111.5258026123047 130.2147827148438 109.5408935546875 L 130.2147827148438 104.8507385253906 C 130.2147827148438 102.3696060180664 132.2236785888672 100.3606872558594 134.7048187255859 100.3606872558594 L 135.0409851074219 100.3606872558594 L 142.8685607910156 93.22940826416016 C 142.892578125 93.21340179443359 142.9085845947266 93.19739532470703 142.9326019287109 93.18138122558594 C 142.9726257324219 93.14936828613281 143.0126342773438 93.11735534667969 143.0606536865234 93.08534240722656 L 143.1807098388672 93.0133056640625 C 143.2207336425781 92.98929595947266 143.2607421875 92.96528625488281 143.3087615966797 92.94927215576172 C 143.3487854003906 92.93327331542969 143.3968200683594 92.91727447509766 143.4448394775391 92.90125274658203 C 143.4928741455078 92.89325714111328 143.5328674316406 92.87724304199219 143.5808715820312 92.86924743652344 C 143.6289215087891 92.86124420166016 143.6769409179688 92.86124420166016 143.7249603271484 92.85324859619141 C 143.7729797363281 92.84523773193359 143.8210144042969 92.84523773193359 143.8690185546875 92.84523773193359 Z M 148.2630310058594 100.352668762207 L 143.8690185546875 96.35884857177734 L 139.4830017089844 100.352668762207 L 148.2630310058594 100.352668762207 Z M 152.6410522460938 109.3567962646484 L 152.6410522460938 104.8507385253906 L 134.6968231201172 104.8507385253906 L 134.6968231201172 109.3567962646484 C 134.7608489990234 109.3487930297852 134.8248748779297 109.3407974243164 134.8889007568359 109.3407974243164 L 143.8690185546875 109.3407974243164 C 144.6933898925781 109.3407974243164 145.36572265625 110.0131072998047 145.36572265625 110.8374786376953 C 145.36572265625 111.6618576049805 144.701416015625 112.3341827392578 143.8690185546875 112.3341827392578 L 137.5381317138672 112.3341827392578 C 138.6026153564453 114.6632385253906 140.9476928710938 116.2799835205078 143.6689453125 116.2799835205078 C 146.3901672363281 116.2799835205078 148.7272491455078 114.6552352905273 149.7917327880859 112.3261642456055 L 148.9033355712891 112.3261642456055 C 148.0789642333984 112.3261642456055 147.4066314697266 111.6538619995117 147.4066314697266 110.8294982910156 C 147.4066314697266 110.0051116943359 148.0789642333984 109.3327941894531 148.9033355712891 109.3327941894531 L 152.4409637451172 109.3327941894531 C 152.5049743652344 109.3327941894531 152.5770111083984 109.3488082885742 152.6410522460938 109.3567962646484 Z" stroke="none" fill="#a8a8a8"/>
      </g>
      <g id="路径_8546" data-name="路径 8546" transform="translate(-240.294 -250.322)" fill="#fff">
        <path d="M 372.2379455566406 385.3668212890625 L 354.9900512695312 385.3668212890625 C 352.7899169921875 385.3668212890625 350.9999389648438 383.5768737792969 350.9999389648438 381.3767700195312 L 350.9999389648438 378.5914306640625 C 350.9999389648438 376.3913269042969 352.7899169921875 374.6014099121094 354.9900512695312 374.6014099121094 L 361.2649230957031 374.6014099121094 L 361.7649230957031 374.6014099121094 L 361.7649230957031 374.1014099121094 L 361.7649230957031 338.3490295410156 C 361.7649230957031 337.3846130371094 362.5495300292969 336.6000061035156 363.5139770507812 336.6000061035156 C 364.4783630371094 336.6000061035156 365.2629699707031 337.3846130371094 365.2629699707031 338.3490295410156 L 365.2629699707031 374.1014099121094 L 365.2629699707031 374.6014099121094 L 365.7629699707031 374.6014099121094 L 372.2379455566406 374.6014099121094 C 374.4380493164062 374.6014099121094 376.2279968261719 376.3913269042969 376.2279968261719 378.5914306640625 L 376.2279968261719 381.3767700195312 C 376.2279968261719 383.5768737792969 374.4380493164062 385.3668212890625 372.2379455566406 385.3668212890625 Z M 354.4900512695312 378.0914306640625 L 354.4900512695312 378.5914306640625 L 354.4900512695312 381.384765625 L 354.4900512695312 381.884765625 L 354.9900512695312 381.884765625 L 372.2379455566406 381.884765625 L 372.7379455566406 381.884765625 L 372.7379455566406 381.384765625 L 372.7379455566406 378.5914306640625 L 372.7379455566406 378.0914306640625 L 372.2379455566406 378.0914306640625 L 354.9900512695312 378.0914306640625 L 354.4900512695312 378.0914306640625 Z" stroke="none"/>
        <path d="M 372.2379455566406 384.8668212890625 C 374.162353515625 384.8668212890625 375.7279968261719 383.3011779785156 375.7279968261719 381.3767700195312 L 375.7279968261719 378.5914306640625 C 375.7279968261719 376.6670227050781 374.162353515625 375.1014099121094 372.2379455566406 375.1014099121094 L 365.7629699707031 375.1014099121094 L 364.7629699707031 375.1014099121094 L 364.7629699707031 374.1014099121094 L 364.7629699707031 338.3490295410156 C 364.7629699707031 337.6603088378906 364.2026672363281 337.1000061035156 363.5139770507812 337.1000061035156 C 362.8252563476562 337.1000061035156 362.2649230957031 337.6603088378906 362.2649230957031 338.3490295410156 L 362.2649230957031 374.1014099121094 L 362.2649230957031 375.1014099121094 L 361.2649230957031 375.1014099121094 L 354.9900512695312 375.1014099121094 C 353.0656127929688 375.1014099121094 351.4999389648438 376.6670227050781 351.4999389648438 378.5914306640625 L 351.4999389648438 381.3767700195312 C 351.4999389648438 383.3011779785156 353.0656127929688 384.8668212890625 354.9900512695312 384.8668212890625 L 372.2379455566406 384.8668212890625 M 353.9900512695312 377.5914306640625 L 354.9900512695312 377.5914306640625 L 372.2379455566406 377.5914306640625 L 373.2379455566406 377.5914306640625 L 373.2379455566406 378.5914306640625 L 373.2379455566406 381.384765625 L 373.2379455566406 382.384765625 L 372.2379455566406 382.384765625 L 354.9900512695312 382.384765625 L 353.9900512695312 382.384765625 L 353.9900512695312 381.384765625 L 353.9900512695312 378.5914306640625 L 353.9900512695312 377.5914306640625 M 372.2379455566406 385.8668212890625 L 354.9900512695312 385.8668212890625 C 352.5088806152344 385.8668212890625 350.4999389648438 383.8578796386719 350.4999389648438 381.3767700195312 L 350.4999389648438 378.5914306640625 C 350.4999389648438 376.1103210449219 352.5088806152344 374.1014099121094 354.9900512695312 374.1014099121094 L 361.2649230957031 374.1014099121094 L 361.2649230957031 338.3490295410156 C 361.2649230957031 337.1084594726562 362.2733459472656 336.1000061035156 363.5139770507812 336.1000061035156 C 364.7545166015625 336.1000061035156 365.7629699707031 337.1084594726562 365.7629699707031 338.3490295410156 L 365.7629699707031 374.1014099121094 L 372.2379455566406 374.1014099121094 C 374.7190856933594 374.1014099121094 376.7279968261719 376.1183166503906 376.7279968261719 378.5914306640625 L 376.7279968261719 381.3767700195312 C 376.7279968261719 383.8578796386719 374.7190856933594 385.8668212890625 372.2379455566406 385.8668212890625 Z M 354.9900512695312 378.5914306640625 L 354.9900512695312 381.384765625 L 372.2379455566406 381.384765625 L 372.2379455566406 378.5914306640625 L 354.9900512695312 378.5914306640625 Z" stroke="none" fill="#a8a8a8"/>
      </g>
    </g>
  </g>
</svg>
