<svg xmlns="http://www.w3.org/2000/svg" width="80" height="80" viewBox="0 0 80 80">
  <g id="组_143827" data-name="组 143827" transform="translate(-3552 890)">
    <rect id="矩形_5044" data-name="矩形 5044" width="80" height="80" transform="translate(3552 -890)" fill="rgba(255,255,255,0)"/>
    <g id="组_22735" data-name="组 22735" transform="translate(1509.377 -1914.612)">
      <path id="减去_3" data-name="减去 3" d="M26.423,39.891c-.084,0-.174,0-.277-.009a5.339,5.339,0,0,1-3.786-1.777L20.4,36.15l-1.418-1.437,1.4-1.4a2.1,2.1,0,0,0,.2-.23l1.445,1.462L23.978,36.5a3.152,3.152,0,0,0,2.152,1.1,2.033,2.033,0,0,0,.256-.017,4.655,4.655,0,0,0,2.978-2.544l.549-.952.977.509a3.707,3.707,0,0,0,2.876.219,4.241,4.241,0,0,0,2.433-1.99l.509-1.019,1.018.509a2.951,2.951,0,0,0,3.176-.3,3.073,3.073,0,0,0,1.4-2.148l-.168-1.237,1.247-.071a4.212,4.212,0,0,0,3.563-2.311,3.2,3.2,0,0,0-.418-3.344L30.89,7.158H18.2L12.669,1.63,14.3,0l4.853,4.852H31.847L48.37,21.471a5.517,5.517,0,0,1,.707,5.762,6.515,6.515,0,0,1-4.531,3.5,5.8,5.8,0,0,1-2.26,3.161,5.26,5.26,0,0,1-4.581.87,6.678,6.678,0,0,1-3.222,2.25,6.061,6.061,0,0,1-3.659.035A6.475,6.475,0,0,1,26.7,39.882C26.6,39.888,26.506,39.891,26.423,39.891ZM2.833,18.25h0a10.962,10.962,0,0,1-1.327-2.458L0,14.3,1.609,12.69l1.942,1.94.082.284a8.558,8.558,0,0,0,.881,1.757,2.038,2.038,0,0,0-.438.336L2.834,18.249Z" transform="translate(2054.773 1052.594)" fill="#fff"/>
      <path id="减去_4" data-name="减去 4" d="M994.252,1.588h0L988.893-3.77,990.524-5.4l5.359,5.359-1.63,1.629Zm6.867-2.272h0l-7.831-7.831,1.631-1.631,7.831,7.832-1.63,1.63Zm6.228-3.634-9.192-9.192,1.631-1.63,9.193,9.193-1.631,1.629Zm5.75-7.373h0l-8.391-8.661c3.125,3.168,5.231,5.218,6.627,6.451a.6.6,0,0,0,.428.179.616.616,0,0,0,.081-.005c1.688-.2,4.519-4.267,5.728-6l0,0,.011-.015a19.492,19.492,0,0,1,1.237-1.679l.178-.158.275-.2,1.654,1.654-.188.138-.275.2c-.219.264-.585.79-.972,1.348l-.011.016c-2.023,2.908-4.182,5.824-6.385,6.734ZM982.226-30.051h0l-1.717-1.63a36.625,36.625,0,0,1,6.821-2.833c1.378-.465,6.012-1.983,7.766-1.983a1.732,1.732,0,0,1,.4.039,27.885,27.885,0,0,1,2.739,1.018l.11.045.018.007a32.221,32.221,0,0,0,5.563,1.928,13.179,13.179,0,0,0,2.105-1.563l1.648,1.648c-1.629,1.371-2.773,2.112-3.4,2.206a2.264,2.264,0,0,1-.343.025c-1.138,0-3.116-.723-6.6-2.147l-.1-.039c-.883-.359-1.883-.767-2.271-.877a37.792,37.792,0,0,0-6.889,1.868,50.228,50.228,0,0,0-5.855,2.289Z" transform="translate(1090.083 1087.446)" fill="#fff"/>
      <path id="路径_8529" data-name="路径 8529" d="M688.707,251.209l-17.779-17.785,7.4-7.4,17.785,17.785Zm-14.517-17.785,14.522,14.522,4.138-4.138-14.527-14.522Z" transform="translate(1422.813 818.254)" fill="#fff"/>
      <path id="路径_8530" data-name="路径 8530" d="M764.239,321.088l1.631-1.63,2.307,2.307-1.63,1.631Z" transform="translate(1336.081 731.408)" fill="#fff"/>
      <path id="路径_8532" data-name="路径 8532" d="M7.4,251.209l-7.4-7.4,17.785-17.785,7.4,7.4Zm-4.138-7.4L7.4,247.946l14.522-14.522-4.138-4.138Z" transform="translate(2046.43 818.254)" fill="#fff"/>
      <path id="路径_8533" data-name="路径 8533" d="M207.959,321.758l2.307-2.307,1.63,1.631-2.307,2.307Z" transform="translate(1853.139 731.415)" fill="#fff"/>
      <path id="路径_8534" data-name="路径 8534" d="M30.9,75.774A36.48,36.48,0,0,1,3.325,47.183l2.265-.438A34.169,34.169,0,0,0,31.411,73.524Zm16.4.005-.509-2.25A33.915,33.915,0,0,0,72.366,47.952l2.25.509A36.21,36.21,0,0,1,47.3,75.779ZM14.151,17.01l-1.685-1.578a36.434,36.434,0,0,1,53.287,0L64.064,17a34.1,34.1,0,0,0-49.913,0Z" transform="translate(2043.344 1024.764)" fill="#fff"/>
      <path id="路径_8536" data-name="路径 8536" d="M131.812,227.764a3.436,3.436,0,0,1-2.448-1.018L116.308,213.7a3.466,3.466,0,0,1,0-4.9l2.448-2.448c1.395-1.395,3.675-1.222,5.3.407A4.4,4.4,0,0,1,125.4,209.5a4.688,4.688,0,0,1,4.072,4.072,4.688,4.688,0,0,1,4.072,4.072h.173a4.484,4.484,0,0,1,2.545,1.318c1.629,1.629,1.8,3.909.407,5.3l-2.448,2.448A3.441,3.441,0,0,1,131.812,227.764Zm-10.765-20.039a.9.9,0,0,0-.657.26l-2.448,2.448a1.155,1.155,0,0,0,0,1.634L131,225.118a1.181,1.181,0,0,0,1.634,0l2.448-2.448c.509-.509.183-1.446-.407-2.036a2.2,2.2,0,0,0-1.222-.662.932.932,0,0,0-.814.249L131,218.587c.509-.509.188-1.446-.407-2.036s-1.527-.937-2.036-.407l-1.634-1.634c.509-.509.183-1.446-.407-2.036s-1.527-.937-2.036-.407l-1.634-1.634a.931.931,0,0,0,.249-.814,2.2,2.2,0,0,0-.657-1.222A2.117,2.117,0,0,0,121.047,207.725Zm12.323-24.58,1.63-1.63,2.307,2.307-1.63,1.63Zm5.484-3.912,2.187-.729,1.154,3.462-2.188.729Zm5.768,2.731,1.153-3.463,2.188.729-1.154,3.462Zm4.9,1.859,2.307-2.307,1.63,1.63-2.307,2.307Z" transform="translate(1939.268 862.426)" fill="#fff"/>
    </g>
  </g>
</svg>
