<svg xmlns="http://www.w3.org/2000/svg" width="142.163" height="37.639" viewBox="0 0 142.163 37.639">
  <g id="组_143818" data-name="组 143818" transform="translate(-231.363 -34.181)">
    <rect id="矩形_269" data-name="矩形 269" width="8.364" height="8.364" transform="translate(231.363 34.181)" fill="#ba9952"/>
    <rect id="矩形_270" data-name="矩形 270" width="8.364" height="8.364" transform="translate(231.363 34.181)" fill="#ba9952"/>
    <path id="路径_8499" data-name="路径 8499" d="M300,8.364h8.364v4.182h8.364V0H300Z" transform="translate(-56.091 34.181)" fill="#ba9952"/>
    <path id="路径_8500" data-name="路径 8500" d="M308.364,400v4.182H300v8.364h16.728v-4.182h0V400Z" transform="translate(-56.091 -349.091)" fill="#ba9952"/>
    <rect id="矩形_271" data-name="矩形 271" width="8.364" height="25.092" transform="translate(231.363 46.727)" fill="#ba9952"/>
    <g id="组_22727" data-name="组 22727" transform="translate(-6 3)">
      <path id="路径_8493" data-name="路径 8493" d="M0,19.445V.668A.67.67,0,0,1,.668,0H2.517a.67.67,0,0,1,.668.668V19.445a.67.67,0,0,1-.668.668H.668A.656.656,0,0,1,0,19.445Z" transform="translate(293.332 40.119)" fill="#ba9952"/>
      <path id="路径_8494" data-name="路径 8494" d="M34.4,19.445V.49A.494.494,0,0,1,34.89,0h7.172a11.622,11.622,0,0,1,2.361.245A6.106,6.106,0,0,1,46.784,1.4,5.636,5.636,0,0,1,48.41,3.341a5.95,5.95,0,0,1,.668,2.873,6.22,6.22,0,0,1-6.638,6.036H37.585v7.172a.67.67,0,0,1-.668.668H35.068A.614.614,0,0,1,34.4,19.445ZM37.585,3.252V8.976a.423.423,0,0,0,.423.423h4.343A3.269,3.269,0,0,0,45,8.375a3.39,3.39,0,0,0,.869-2.227A2.9,2.9,0,0,0,44.49,3.475a4.139,4.139,0,0,0-2.272-.557H37.964A.34.34,0,0,0,37.585,3.252Z" transform="translate(266.594 40.119)" fill="#ba9952"/>
      <path id="路径_8495" data-name="路径 8495" d="M113.4,19.556v-19A.551.551,0,0,1,113.957,0h7.618a6.6,6.6,0,0,1,4.677,1.515,5.072,5.072,0,0,1,1.581,3.9,4.851,4.851,0,0,1-.646,2.383,4.971,4.971,0,0,1-2.472,1.938v.045a3.943,3.943,0,0,1,2.584,1.737,5.276,5.276,0,0,1,.846,2.9,5.332,5.332,0,0,1-1.737,4.165,6.027,6.027,0,0,1-4.121,1.537h-8.353A.533.533,0,0,1,113.4,19.556Zm7.84-16.839h-4.21a.423.423,0,0,0-.423.423V8.063a.423.423,0,0,0,.423.423h4.21A3.478,3.478,0,0,0,123.8,7.64a2.877,2.877,0,0,0,0-4.076A3.421,3.421,0,0,0,121.24,2.717Zm.29,8.464h-4.5a.423.423,0,0,0-.423.423v5.212a.423.423,0,0,0,.423.423h4.5a3.4,3.4,0,0,0,2.606-.913,3.129,3.129,0,0,0,0-4.232A3.4,3.4,0,0,0,121.53,11.181Z" transform="translate(205.19 40.119)" fill="#ba9952"/>
      <path id="路径_8496" data-name="路径 8496" d="M198.921,39.759a.423.423,0,0,1-.423-.423v-.846h-.045a2.421,2.421,0,0,1-1.27,1.069,6.3,6.3,0,0,1-2.339.356,5.5,5.5,0,0,1-3.764-1.27,3.906,3.906,0,0,1-1.381-3.118,4.08,4.08,0,0,1,1.2-3.007,4.91,4.91,0,0,1,3.542-1.247h4.076V29.758c0-1.27-.98-1.893-3.007-1.849a5.582,5.582,0,0,0-1.737.223,1.965,1.965,0,0,0-.8.579.438.438,0,0,1-.557.067l-1.626-1.225a.433.433,0,0,1-.067-.624,5.82,5.82,0,0,1,4.655-1.737,7.9,7.9,0,0,1,4.41,1.025,4.19,4.19,0,0,1,1.671,3.7v9.4a.423.423,0,0,1-.423.423h-2.116Zm-.423-5.034V33.678h-3.519c-1.715.045-2.561.624-2.561,1.737a1.578,1.578,0,0,0,.668,1.247,3.141,3.141,0,0,0,2.094.557,5.288,5.288,0,0,0,2.606-.423C198.275,36.484,198.5,35.794,198.5,34.725Z" transform="translate(145.885 20.541)" fill="#ba9952"/>
      <path id="路径_8497" data-name="路径 8497" d="M257.5,39.2V25.968a.5.5,0,0,1,.512-.512h1.982a.5.5,0,0,1,.512.512v1.025h.067a4.8,4.8,0,0,1,3.92-1.693,5.482,5.482,0,0,1,3.386,1.27,4.379,4.379,0,0,1,1.626,3.7v8.887a.646.646,0,0,1-.646.646h-1.737a.646.646,0,0,1-.646-.646V31.247a3.076,3.076,0,0,0-.846-2.272,3.186,3.186,0,0,0-4.277,0,3.007,3.007,0,0,0-.846,2.272V39.2a.575.575,0,0,1-.579.579h-1.849A.562.562,0,0,1,257.5,39.2Z" transform="translate(93.187 20.455)" fill="#ba9952"/>
      <path id="路径_8498" data-name="路径 8498" d="M329,19.445V.668A.67.67,0,0,1,329.668,0h1.671a.67.67,0,0,1,.668.668v11.85h.067l5.5-6.415a.983.983,0,0,1,.713-.334h2.428a.33.33,0,0,1,.245.557l-4.677,5.056,5.568,8.219a.322.322,0,0,1-.267.512h-2.651a.965.965,0,0,1-.8-.445l-3.72-6.237-2.383,2.584v3.43a.67.67,0,0,1-.668.668h-1.693A.656.656,0,0,1,329,19.445Z" transform="translate(37.612 40.119)" fill="#ba9952"/>
    </g>
  </g>
</svg>
